# xmcd
#
# Track frame offsets:
#	150
#	23222
#	41714
#	65925
#	90749
#	106327
#	141838
#	163307
#
# Disc length: 2487 seconds
#
# Revision: 1
# Processed by: cddbd v1.4PL0 Copyright (c) Steve Scherf et al.
# Submitted via: audiograbber 1.82.01
#
DISCID=7309b508
DTITLE=Saber El Rouba3i - 2001
DYEAR=1900
DGENRE=
TTITLE0=Ghaltan
TTITLE1=Meziana
TTITLE2=Khalas Tarko
TTITLE3=Yalli Charina
TTITLE4=El Dunia
TTITLE5=Ah 3alli Rah
TTITLE6=3arous El Baher
TTITLE7=Nadem
EXTD=
EXTT0=
EXTT1=
EXTT2=
EXTT3=
EXTT4=
EXTT5=
EXTT6=
EXTT7=
PLAYORDER=
